<svg width="11" height="21" viewBox="0 0 11 21" fill="none" xmlns="http://www.w3.org/2000/svg">
<path d="M9.01629 20.125C8.81087 20.1257 8.60791 20.0804 8.42231 19.9923C8.23672 19.9043 8.07321 19.7758 7.94379 19.6163L1.30254 11.3663C1.1003 11.1202 0.989746 10.8116 0.989746 10.4931C0.989746 10.1747 1.1003 9.86605 1.30254 9.62001L8.17754 1.37001C8.41093 1.08922 8.74631 0.912631 9.1099 0.879109C9.47348 0.845587 9.83549 0.957872 10.1163 1.19126C10.3971 1.42465 10.5737 1.76003 10.6072 2.12362C10.6407 2.4872 10.5284 2.84921 10.295 3.13001L4.14879 10.5L10.0888 17.87C10.2569 18.0718 10.3637 18.3176 10.3966 18.5782C10.4294 18.8389 10.3869 19.1035 10.2741 19.3407C10.1612 19.5779 9.98282 19.7778 9.75992 19.9168C9.53702 20.0558 9.27896 20.1281 9.01629 20.125Z" fill="#EC9631"/>
</svg>
