<svg width="33" height="28" viewBox="0 0 33 28" fill="none" xmlns="http://www.w3.org/2000/svg">
<path d="M32.6914 3.93358C31.4961 4.44921 30.1953 4.82031 28.8554 4.96484C30.2465 4.13841 31.2882 2.8328 31.7851 1.29296C30.4798 2.06948 29.0498 2.61399 27.5586 2.90233C26.9353 2.23603 26.1815 1.70522 25.3441 1.34298C24.5067 0.980748 23.6037 0.794845 22.6914 0.796861C19 0.796861 16.0312 3.78905 16.0312 7.46093C16.0312 7.97656 16.0937 8.49219 16.1953 8.98828C10.668 8.69922 5.73828 6.05859 2.46094 2.01561C1.86377 3.0356 1.55083 4.19697 1.55469 5.3789C1.55469 7.6914 2.73047 9.73047 4.52343 10.9297C3.46681 10.8881 2.43493 10.5977 1.51172 10.082V10.1641C1.51172 13.4024 3.80078 16.086 6.85156 16.7031C6.27874 16.8519 5.68948 16.928 5.09765 16.9297C4.66406 16.9297 4.2539 16.8867 3.83984 16.8281C4.68359 19.4688 7.14062 21.3867 10.0664 21.4492C7.77734 23.2422 4.91015 24.2969 1.79687 24.2969C1.23828 24.2969 0.722656 24.2774 0.1875 24.2149C3.14062 26.1094 6.64452 27.2032 10.418 27.2032C22.6679 27.2032 29.3711 17.0547 29.3711 8.24609C29.3711 7.95703 29.3711 7.66797 29.3515 7.3789C30.6484 6.42968 31.7851 5.2539 32.6914 3.93358Z" fill="white"/>
</svg>
